# xmcd
#
# Track frame offsets:
#	150
#	18242
#	37400
#	55106
#	72782
#	88280
#	103983
#	119929
#	134610
#	152367
#	169142
#	184718
#	202700
#	222012
#	239103
#	257865
#
# Disc length: 3651 seconds
#
# Revision: 1
# Processed by: cddbd v1.5.2PL0 Copyright (c) Steve Scherf et al.
# Submitted via: audiograbber 1.83.01
#
DISCID=f10e4110
DTITLE=Lee Brice - I Don't Dance (Deluxe Edition)
DYEAR=2014
DGENRE=Country
TTITLE0=I Don't Dance
TTITLE1=No Better Than This
TTITLE2=Show You Off Tonight
TTITLE3=Always the Only One
TTITLE4=Good Man
TTITLE5=Drinking Class
TTITLE6=That Don't Sound Like You
TTITLE7=Girls In Bikinis
TTITLE8=Sirens
TTITLE9=Somebody's Been Drinking
TTITLE10=Hard To Figure Out (The Airport Song)
TTITLE11=My Carolina
TTITLE12=Panama City
TTITLE13=More My Style
TTITLE14=Closer
TTITLE15=Whiskey Used To Burn
EXTD=
EXTT0=
EXTT1=
EXTT2=
EXTT3=
EXTT4=
EXTT5=
EXTT6=
EXTT7=
EXTT8=
EXTT9=
EXTT10=
EXTT11=
EXTT12=
EXTT13=
EXTT14=
EXTT15=
PLAYORDER=
